# xmcd CD database file
#
# Track frame offsets:
#	150
#	18787
#	45551
#	72923
#	96065
#	120867
#	143215
#	160838
#	188834
#	208614
#
# Disc length: 3024 seconds
#
# Revision: 0
# Processed by: cddbd v1.5.2PL0 Copyright (c) Steve Scherf et al.
# Submitted via: CDex 1.70beta2
#
DISCID=7b0bce0a
DTITLE=Atesh and Venera - Balkan Fiesta
DYEAR=2007
DGENRE=Jazz
TTITLE0=Trans-Dunabian Jump
TTITLE1=Balkan Fiesta
TTITLE2=Whisper in 9/8
TTITLE3=Atesh's Sign
TTITLE4=Papasov's Dream
TTITLE5=Fire Dance
TTITLE6=Samodiva
TTITLE7=Rodopean Song
TTITLE8=Leftero
TTITLE9=Broken Frets
EXTD=YEAR: 2007
EXTT0=
EXTT1=
EXTT2=
EXTT3=
EXTT4=
EXTT5=
EXTT6=
EXTT7=
EXTT8=
EXTT9=
PLAYORDER=
